<?xml version="1.0" standalone="no"?>
<!DOCTYPE svg PUBLIC "-//W3C//DTD SVG 20010904//EN"
 "http://www.w3.org/TR/2001/REC-SVG-20010904/DTD/svg10.dtd">
<svg version="1.0" xmlns="http://www.w3.org/2000/svg"
 width="225.000000pt" height="225.000000pt" viewBox="0 0 225.000000 225.000000"
 preserveAspectRatio="xMidYMid meet">

<g transform="translate(0.000000,225.000000) scale(0.100000,-0.100000)"
fill="#000000" stroke="none">
<path d="M962 2219 c-562 -73 -995 -598 -958 -1164 30 -462 329 -852 761 -993
136 -45 221 -55 397 -49 208 7 352 48 518 146 l69 41 43 -42 c106 -107 260
-151 397 -115 25 7 46 17 48 22 1 6 -52 76 -120 156 -67 80 -128 153 -135 162
-11 13 -8 23 21 64 251 350 290 787 106 1161 -164 332 -468 552 -839 608 -102
15 -208 16 -308 3z m368 -264 c245 -75 438 -232 544 -442 99 -197 118 -448 50
-653 -90 -270 -289 -462 -574 -555 -76 -25 -100 -28 -225 -29 -171 -1 -247 15
-390 84 -241 116 -396 314 -461 585 -25 102 -22 287 5 390 85 320 332 556 661
630 86 20 313 14 390 -10z"/>
</g>
</svg>
